# Blender 4.5.3 LTS
# www.blender.org
mtllib wall.mtl.mtl
o 立方体
v -5.000000 -0.240000 2.800000
v -3.700000 -0.240000 2.800000
v -3.700000 0.240000 2.800000
v 1.300000 -0.240000 2.800000
v -5.000000 0.240000 2.800000
v -3.700000 -0.240000 -1.600000
v 1.300000 0.240000 2.800000
v -3.700000 0.240000 -1.600000
v -5.000000 -0.240000 -2.800000
v -1.300000 -0.240000 2.800000
v -1.300000 0.240000 2.800000
v 1.300000 -0.240000 -1.600000
v -5.000000 0.240000 -2.800000
v -1.300000 -0.240000 -1.600000
v -1.300000 0.240000 -1.600000
v 1.300000 0.240000 -1.600000
v 5.000000 -0.240000 2.800000
v 3.700000 -0.240000 2.800000
v 5.000000 0.240000 2.800000
v 3.700000 0.240000 2.800000
v 5.000000 -0.240000 -2.800000
v 3.700000 -0.240000 -1.600000
v 5.000000 0.240000 -2.800000
v 3.700000 0.240000 -1.600000
vn -1.0000 -0.0000 -0.0000
vn -0.0000 -0.0000 -1.0000
vn 1.0000 -0.0000 -0.0000
vn -0.0000 -0.0000 1.0000
vn -0.0000 -1.0000 -0.0000
vn -0.0000 1.0000 -0.0000
vt 0.375000 0.000000
vt 0.625000 0.000000
vt 0.625000 0.250000
vt 0.375000 0.250000
vt 0.625000 0.500000
vt 0.375000 0.500000
vt 0.625000 0.750000
vt 0.375000 0.750000
vt 0.625000 1.000000
vt 0.375000 1.000000
vt 0.375000 0.967500
vt 0.625000 0.967500
vt 0.375000 0.907500
vt 0.375000 0.842500
vt 0.625000 0.842500
vt 0.625000 0.907500
vt 0.375000 0.782500
vt 0.625000 0.782500
vt 0.157500 0.750000
vt 0.125000 0.750000
vt 0.125000 0.500000
vt 0.342500 0.750000
vt 0.342500 0.553571
vt 0.282500 0.553571
vt 0.282500 0.750000
vt 0.217500 0.750000
vt 0.217500 0.553571
vt 0.157500 0.553571
vt 0.657500 0.553571
vt 0.657500 0.750000
vt 0.875000 0.500000
vt 0.875000 0.750000
vt 0.842500 0.750000
vt 0.842500 0.553571
vt 0.782500 0.553571
vt 0.782500 0.750000
vt 0.717500 0.750000
vt 0.717500 0.553571
s 0
f 1/1/1 5/2/1 13/3/1 9/4/1
f 9/4/2 13/3/2 23/5/2 21/6/2
f 21/6/3 23/5/3 19/7/3 17/8/3
f 5/9/4 1/10/4 2/11/4 3/12/4
f 10/13/4 4/14/4 7/15/4 11/16/4
f 18/17/4 17/8/4 19/7/4 20/18/4
f 2/19/5 1/20/5 9/21/5 21/6/5 17/8/5 18/22/5 22/23/5 12/24/5 4/25/5 10/26/5 14/27/5 6/28/5
f 24/29/6 20/30/6 19/7/6 23/5/6 13/31/6 5/32/6 3/33/6 8/34/6 15/35/6 11/36/6 7/37/6 16/38/6
f 7/2/3 4/1/3 12/4/3 16/3/3
f 16/3/4 12/4/4 22/6/4 24/5/4
f 20/7/1 24/5/1 22/6/1 18/8/1
f 6/4/3 8/3/3 3/2/3 2/1/3
f 8/3/4 6/4/4 14/6/4 15/5/4
f 11/7/1 15/5/1 14/6/1 10/8/1
