# Blender 4.5.3 LTS
# www.blender.org
mtllib 墙面.mtl
o 立方体.025
v 1.000000 -1.000000 0.180000
v 1.250000 -0.537868 0.180000
v 1.000000 -0.500000 0.180000
v 1.462132 -0.750000 0.180000
v 1.000000 -1.000000 -0.180000
v 1.250000 -0.537868 -0.180000
v 1.000000 -0.500000 -0.180000
v 1.462132 -0.750000 -0.180000
v 1.500000 -1.000000 0.180000
v 1.037868 -0.750000 0.180000
v 1.500000 -0.500000 0.180000
v 1.250000 -0.962132 0.180000
v 1.037868 -0.750000 -0.180000
v 1.500000 -1.000000 -0.180000
v 1.500000 -0.500000 -0.180000
v 1.250000 -0.962132 -0.180000
v 1.356066 -0.643934 -0.180000
v 1.143934 -0.856066 -0.180000
v 1.143934 -0.643934 0.180000
v 1.356066 -0.856066 0.180000
v -0.500000 0.000000 0.180000
v -0.250000 0.462132 0.180000
v -0.500000 0.500000 0.180000
v -0.037868 0.250000 0.180000
v -0.500000 0.000000 -0.180000
v -0.250000 0.462132 -0.180000
v -0.500000 0.500000 -0.180000
v -0.037868 0.250000 -0.180000
v 0.000000 0.000000 0.180000
v -0.462132 0.250000 0.180000
v 0.000000 0.500000 0.180000
v -0.250000 0.037868 0.180000
v -0.462132 0.250000 -0.180000
v 0.000000 0.000000 -0.180000
v 0.000000 0.500000 -0.180000
v -0.250000 0.037868 -0.180000
v -0.143934 0.356066 -0.180000
v -0.356066 0.143934 -0.180000
v -0.356066 0.356066 0.180000
v -0.143934 0.143934 0.180000
v 0.000000 0.000000 0.180000
v 0.250000 0.462132 0.180000
v 0.000000 0.500000 0.180000
v 0.462132 0.250000 0.180000
v 0.000000 0.000000 -0.180000
v 0.250000 0.462132 -0.180000
v 0.000000 0.500000 -0.180000
v 0.462132 0.250000 -0.180000
v 0.500000 0.000000 0.180000
v 0.037868 0.250000 0.180000
v 0.500000 0.500000 0.180000
v 0.250000 0.037868 0.180000
v 0.037868 0.250000 -0.180000
v 0.500000 0.000000 -0.180000
v 0.500000 0.500000 -0.180000
v 0.250000 0.037868 -0.180000
v 0.356066 0.356066 -0.180000
v 0.143934 0.143934 -0.180000
v 0.143934 0.356066 0.180000
v 0.356066 0.143934 0.180000
v -1.000000 0.000000 0.180000
v -0.750000 0.462132 0.180000
v -1.000000 0.500000 0.180000
v -0.537868 0.250000 0.180000
v -1.000000 0.000000 -0.180000
v -0.750000 0.462132 -0.180000
v -1.000000 0.500000 -0.180000
v -0.537868 0.250000 -0.180000
v -0.500000 0.000000 0.180000
v -0.962132 0.250000 0.180000
v -0.500000 0.500000 0.180000
v -0.750000 0.037868 0.180000
v -0.962132 0.250000 -0.180000
v -0.500000 0.000000 -0.180000
v -0.500000 0.500000 -0.180000
v -0.750000 0.037868 -0.180000
v -0.643934 0.356066 -0.180000
v -0.856066 0.143934 -0.180000
v -0.856066 0.356066 0.180000
v -0.643934 0.143934 0.180000
v 0.500000 0.000000 0.180000
v 0.750000 0.462132 0.180000
v 0.500000 0.500000 0.180000
v 0.962132 0.250000 0.180000
v 0.500000 0.000000 -0.180000
v 0.750000 0.462132 -0.180000
v 0.500000 0.500000 -0.180000
v 0.962132 0.250000 -0.180000
v 1.000000 0.000000 0.180000
v 0.537868 0.250000 0.180000
v 1.000000 0.500000 0.180000
v 0.750000 0.037868 0.180000
v 0.537868 0.250000 -0.180000
v 1.000000 0.000000 -0.180000
v 1.000000 0.500000 -0.180000
v 0.750000 0.037868 -0.180000
v 0.856066 0.356066 -0.180000
v 0.643934 0.143934 -0.180000
v 0.643934 0.356066 0.180000
v 0.856066 0.143934 0.180000
v -1.500000 0.000000 0.180000
v -1.250000 0.462132 0.180000
v -1.500000 0.500000 0.180000
v -1.037868 0.250000 0.180000
v -1.500000 0.000000 -0.180000
v -1.250000 0.462132 -0.180000
v -1.500000 0.500000 -0.180000
v -1.037868 0.250000 -0.180000
v -1.000000 0.000000 0.180000
v -1.462132 0.250000 0.180000
v -1.000000 0.500000 0.180000
v -1.250000 0.037868 0.180000
v -1.462132 0.250000 -0.180000
v -1.000000 0.000000 -0.180000
v -1.000000 0.500000 -0.180000
v -1.250000 0.037868 -0.180000
v -1.143934 0.356066 -0.180000
v -1.356066 0.143934 -0.180000
v -1.356066 0.356066 0.180000
v -1.143934 0.143934 0.180000
v -0.500000 0.500000 0.180000
v -0.250000 0.962132 0.180000
v -0.500000 1.000000 0.180000
v -0.037868 0.750000 0.180000
v -0.500000 0.500000 -0.180000
v -0.250000 0.962132 -0.180000
v -0.500000 1.000000 -0.180000
v -0.037868 0.750000 -0.180000
v 0.000000 0.500000 0.180000
v -0.462132 0.750000 0.180000
v 0.000000 1.000000 0.180000
v -0.250000 0.537868 0.180000
v -0.462132 0.750000 -0.180000
v 0.000000 0.500000 -0.180000
v 0.000000 1.000000 -0.180000
v -0.250000 0.537868 -0.180000
v -0.143934 0.856066 -0.180000
v -0.356066 0.643934 -0.180000
v -0.356066 0.856066 0.180000
v -0.143934 0.643934 0.180000
v 0.000000 0.500000 0.180000
v 0.250000 0.962132 0.180000
v 0.000000 1.000000 0.180000
v 0.462132 0.750000 0.180000
v 0.000000 0.500000 -0.180000
v 0.250000 0.962132 -0.180000
v 0.000000 1.000000 -0.180000
v 0.462132 0.750000 -0.180000
v 0.500000 0.500000 0.180000
v 0.037868 0.750000 0.180000
v 0.500000 1.000000 0.180000
v 0.250000 0.537868 0.180000
v 0.037868 0.750000 -0.180000
v 0.500000 0.500000 -0.180000
v 0.500000 1.000000 -0.180000
v 0.250000 0.537868 -0.180000
v 0.356066 0.856066 -0.180000
v 0.143934 0.643934 -0.180000
v 0.143934 0.856066 0.180000
v 0.356066 0.643934 0.180000
v -1.000000 0.500000 0.180000
v -0.750000 0.962132 0.180000
v -1.000000 1.000000 0.180000
v -0.537868 0.750000 0.180000
v -1.000000 0.500000 -0.180000
v -0.750000 0.962132 -0.180000
v -1.000000 1.000000 -0.180000
v -0.537868 0.750000 -0.180000
v -0.500000 0.500000 0.180000
v -0.962132 0.750000 0.180000
v -0.500000 1.000000 0.180000
v -0.750000 0.537868 0.180000
v -0.962132 0.750000 -0.180000
v -0.500000 0.500000 -0.180000
v -0.500000 1.000000 -0.180000
v -0.750000 0.537868 -0.180000
v -0.643934 0.856066 -0.180000
v -0.856066 0.643934 -0.180000
v -0.856066 0.856066 0.180000
v -0.643934 0.643934 0.180000
v 0.500000 0.500000 0.180000
v 0.750000 0.962132 0.180000
v 0.500000 1.000000 0.180000
v 0.962132 0.750000 0.180000
v 0.500000 0.500000 -0.180000
v 0.750000 0.962132 -0.180000
v 0.500000 1.000000 -0.180000
v 0.962132 0.750000 -0.180000
v 1.000000 0.500000 0.180000
v 0.537868 0.750000 0.180000
v 1.000000 1.000000 0.180000
v 0.750000 0.537868 0.180000
v 0.537868 0.750000 -0.180000
v 1.000000 0.500000 -0.180000
v 1.000000 1.000000 -0.180000
v 0.750000 0.537868 -0.180000
v 0.856066 0.856066 -0.180000
v 0.643934 0.643934 -0.180000
v 0.643934 0.856066 0.180000
v 0.856066 0.643934 0.180000
v -1.500000 0.500000 0.180000
v -1.250000 0.962132 0.180000
v -1.500000 1.000000 0.180000
v -1.037868 0.750000 0.180000
v -1.500000 0.500000 -0.180000
v -1.250000 0.962132 -0.180000
v -1.500000 1.000000 -0.180000
v -1.037868 0.750000 -0.180000
v -1.000000 0.500000 0.180000
v -1.462132 0.750000 0.180000
v -1.000000 1.000000 0.180000
v -1.250000 0.537868 0.180000
v -1.462132 0.750000 -0.180000
v -1.000000 0.500000 -0.180000
v -1.000000 1.000000 -0.180000
v -1.250000 0.537868 -0.180000
v -1.143934 0.856066 -0.180000
v -1.356066 0.643934 -0.180000
v -1.356066 0.856066 0.180000
v -1.143934 0.643934 0.180000
v -0.500000 -0.500000 0.180000
v -0.250000 -0.037868 0.180000
v -0.500000 0.000000 0.180000
v -0.037868 -0.250000 0.180000
v -0.500000 -0.500000 -0.180000
v -0.250000 -0.037868 -0.180000
v -0.500000 0.000000 -0.180000
v -0.037868 -0.250000 -0.180000
v 0.000000 -0.500000 0.180000
v -0.462132 -0.250000 0.180000
v 0.000000 0.000000 0.180000
v -0.250000 -0.462132 0.180000
v -0.462132 -0.250000 -0.180000
v 0.000000 -0.500000 -0.180000
v 0.000000 0.000000 -0.180000
v -0.250000 -0.462132 -0.180000
v -0.143934 -0.143934 -0.180000
v -0.356066 -0.356066 -0.180000
v -0.356066 -0.143934 0.180000
v -0.143934 -0.356066 0.180000
v 0.000000 -0.500000 0.180000
v 0.250000 -0.037868 0.180000
v 0.000000 0.000000 0.180000
v 0.462132 -0.250000 0.180000
v 0.000000 -0.500000 -0.180000
v 0.250000 -0.037868 -0.180000
v 0.000000 0.000000 -0.180000
v 0.462132 -0.250000 -0.180000
v 0.500000 -0.500000 0.180000
v 0.037868 -0.250000 0.180000
v 0.500000 0.000000 0.180000
v 0.250000 -0.462132 0.180000
v 0.037868 -0.250000 -0.180000
v 0.500000 -0.500000 -0.180000
v 0.500000 0.000000 -0.180000
v 0.250000 -0.462132 -0.180000
v 0.356066 -0.143934 -0.180000
v 0.143934 -0.356066 -0.180000
v 0.143934 -0.143934 0.180000
v 0.356066 -0.356066 0.180000
v -1.000000 -0.500000 0.180000
v -0.750000 -0.037868 0.180000
v -1.000000 0.000000 0.180000
v -0.537868 -0.250000 0.180000
v -1.000000 -0.500000 -0.180000
v -0.750000 -0.037868 -0.180000
v -1.000000 0.000000 -0.180000
v -0.537868 -0.250000 -0.180000
v -0.500000 -0.500000 0.180000
v -0.962132 -0.250000 0.180000
v -0.500000 0.000000 0.180000
v -0.750000 -0.462132 0.180000
v -0.962132 -0.250000 -0.180000
v -0.500000 -0.500000 -0.180000
v -0.500000 0.000000 -0.180000
v -0.750000 -0.462132 -0.180000
v -0.643934 -0.143934 -0.180000
v -0.856066 -0.356066 -0.180000
v -0.856066 -0.143934 0.180000
v -0.643934 -0.356066 0.180000
v 0.500000 -0.500000 0.180000
v 0.750000 -0.037868 0.180000
v 0.500000 0.000000 0.180000
v 0.962132 -0.250000 0.180000
v 0.500000 -0.500000 -0.180000
v 0.750000 -0.037868 -0.180000
v 0.500000 0.000000 -0.180000
v 0.962132 -0.250000 -0.180000
v 1.000000 -0.500000 0.180000
v 0.537868 -0.250000 0.180000
v 1.000000 0.000000 0.180000
v 0.750000 -0.462132 0.180000
v 0.537868 -0.250000 -0.180000
v 1.000000 -0.500000 -0.180000
v 1.000000 0.000000 -0.180000
v 0.750000 -0.462132 -0.180000
v 0.856066 -0.143934 -0.180000
v 0.643934 -0.356066 -0.180000
v 0.643934 -0.143934 0.180000
v 0.856066 -0.356066 0.180000
v -1.500000 -0.500000 0.180000
v -1.250000 -0.037868 0.180000
v -1.500000 0.000000 0.180000
v -1.037868 -0.250000 0.180000
v -1.500000 -0.500000 -0.180000
v -1.250000 -0.037868 -0.180000
v -1.500000 0.000000 -0.180000
v -1.037868 -0.250000 -0.180000
v -1.000000 -0.500000 0.180000
v -1.462132 -0.250000 0.180000
v -1.000000 0.000000 0.180000
v -1.250000 -0.462132 0.180000
v -1.462132 -0.250000 -0.180000
v -1.000000 -0.500000 -0.180000
v -1.000000 0.000000 -0.180000
v -1.250000 -0.462132 -0.180000
v -1.143934 -0.143934 -0.180000
v -1.356066 -0.356066 -0.180000
v -1.356066 -0.143934 0.180000
v -1.143934 -0.356066 0.180000
v -0.500000 -1.000000 0.180000
v -0.250000 -0.537868 0.180000
v -0.500000 -0.500000 0.180000
v -0.037868 -0.750000 0.180000
v -0.500000 -1.000000 -0.180000
v -0.250000 -0.537868 -0.180000
v -0.500000 -0.500000 -0.180000
v -0.037868 -0.750000 -0.180000
v 0.000000 -1.000000 0.180000
v -0.462132 -0.750000 0.180000
v 0.000000 -0.500000 0.180000
v -0.250000 -0.962132 0.180000
v -0.462132 -0.750000 -0.180000
v 0.000000 -1.000000 -0.180000
v 0.000000 -0.500000 -0.180000
v -0.250000 -0.962132 -0.180000
v -0.143934 -0.643934 -0.180000
v -0.356066 -0.856066 -0.180000
v -0.356066 -0.643934 0.180000
v -0.143934 -0.856066 0.180000
v 0.000000 -1.000000 0.180000
v 0.250000 -0.537868 0.180000
v 0.000000 -0.500000 0.180000
v 0.462132 -0.750000 0.180000
v 0.000000 -1.000000 -0.180000
v 0.250000 -0.537868 -0.180000
v 0.000000 -0.500000 -0.180000
v 0.462132 -0.750000 -0.180000
v 0.500000 -1.000000 0.180000
v 0.037868 -0.750000 0.180000
v 0.500000 -0.500000 0.180000
v 0.250000 -0.962132 0.180000
v 0.037868 -0.750000 -0.180000
v 0.500000 -1.000000 -0.180000
v 0.500000 -0.500000 -0.180000
v 0.250000 -0.962132 -0.180000
v 0.356066 -0.643934 -0.180000
v 0.143934 -0.856066 -0.180000
v 0.143934 -0.643934 0.180000
v 0.356066 -0.856066 0.180000
v -1.000000 -1.000000 0.180000
v -0.750000 -0.537868 0.180000
v -1.000000 -0.500000 0.180000
v -0.537868 -0.750000 0.180000
v -1.000000 -1.000000 -0.180000
v -0.750000 -0.537868 -0.180000
v -1.000000 -0.500000 -0.180000
v -0.537868 -0.750000 -0.180000
v -0.500000 -1.000000 0.180000
v -0.962132 -0.750000 0.180000
v -0.500000 -0.500000 0.180000
v -0.750000 -0.962132 0.180000
v -0.962132 -0.750000 -0.180000
v -0.500000 -1.000000 -0.180000
v -0.500000 -0.500000 -0.180000
v -0.750000 -0.962132 -0.180000
v -0.643934 -0.643934 -0.180000
v -0.856066 -0.856066 -0.180000
v -0.856066 -0.643934 0.180000
v -0.643934 -0.856066 0.180000
v 0.500000 -1.000000 0.180000
v 0.750000 -0.537868 0.180000
v 0.500000 -0.500000 0.180000
v 0.962132 -0.750000 0.180000
v 0.500000 -1.000000 -0.180000
v 0.750000 -0.537868 -0.180000
v 0.500000 -0.500000 -0.180000
v 0.962132 -0.750000 -0.180000
v 1.000000 -1.000000 0.180000
v 0.537868 -0.750000 0.180000
v 1.000000 -0.500000 0.180000
v 0.750000 -0.962132 0.180000
v 0.537868 -0.750000 -0.180000
v 1.000000 -1.000000 -0.180000
v 1.000000 -0.500000 -0.180000
v 0.750000 -0.962132 -0.180000
v 0.856066 -0.643934 -0.180000
v 0.643934 -0.856066 -0.180000
v 0.643934 -0.643934 0.180000
v 0.856066 -0.856066 0.180000
v -1.500000 -1.000000 0.180000
v -1.250000 -0.537868 0.180000
v -1.500000 -0.500000 0.180000
v -1.037868 -0.750000 0.180000
v -1.500000 -1.000000 -0.180000
v -1.250000 -0.537868 -0.180000
v -1.500000 -0.500000 -0.180000
v -1.037868 -0.750000 -0.180000
v -1.000000 -1.000000 0.180000
v -1.462132 -0.750000 0.180000
v -1.000000 -0.500000 0.180000
v -1.250000 -0.962132 0.180000
v -1.462132 -0.750000 -0.180000
v -1.000000 -1.000000 -0.180000
v -1.000000 -0.500000 -0.180000
v -1.250000 -0.962132 -0.180000
v -1.143934 -0.643934 -0.180000
v -1.356066 -0.856066 -0.180000
v -1.356066 -0.643934 0.180000
v -1.143934 -0.856066 0.180000
v 1.000000 0.000000 0.180000
v 1.250000 0.462132 0.180000
v 1.000000 0.500000 0.180000
v 1.462132 0.250000 0.180000
v 1.000000 0.000000 -0.180000
v 1.250000 0.462132 -0.180000
v 1.000000 0.500000 -0.180000
v 1.462132 0.250000 -0.180000
v 1.500000 0.000000 0.180000
v 1.037868 0.250000 0.180000
v 1.500000 0.500000 0.180000
v 1.250000 0.037868 0.180000
v 1.037868 0.250000 -0.180000
v 1.500000 0.000000 -0.180000
v 1.500000 0.500000 -0.180000
v 1.250000 0.037868 -0.180000
v 1.356066 0.356066 -0.180000
v 1.143934 0.143934 -0.180000
v 1.143934 0.356066 0.180000
v 1.356066 0.143934 0.180000
v 1.000000 0.500000 0.180000
v 1.250000 0.962132 0.180000
v 1.000000 1.000000 0.180000
v 1.462132 0.750000 0.180000
v 1.000000 0.500000 -0.180000
v 1.250000 0.962132 -0.180000
v 1.000000 1.000000 -0.180000
v 1.462132 0.750000 -0.180000
v 1.500000 0.500000 0.180000
v 1.037868 0.750000 0.180000
v 1.500000 1.000000 0.180000
v 1.250000 0.537868 0.180000
v 1.037868 0.750000 -0.180000
v 1.500000 0.500000 -0.180000
v 1.500000 1.000000 -0.180000
v 1.250000 0.537868 -0.180000
v 1.356066 0.856066 -0.180000
v 1.143934 0.643934 -0.180000
v 1.143934 0.856066 0.180000
v 1.356066 0.643934 0.180000
v 1.000000 -0.500000 0.180000
v 1.250000 -0.037868 0.180000
v 1.000000 0.000000 0.180000
v 1.462132 -0.250000 0.180000
v 1.000000 -0.500000 -0.180000
v 1.250000 -0.037868 -0.180000
v 1.000000 0.000000 -0.180000
v 1.462132 -0.250000 -0.180000
v 1.500000 -0.500000 0.180000
v 1.037868 -0.250000 0.180000
v 1.500000 0.000000 0.180000
v 1.250000 -0.462132 0.180000
v 1.037868 -0.250000 -0.180000
v 1.500000 -0.500000 -0.180000
v 1.500000 0.000000 -0.180000
v 1.250000 -0.462132 -0.180000
v 1.356066 -0.143934 -0.180000
v 1.143934 -0.356066 -0.180000
v 1.143934 -0.143934 0.180000
v 1.356066 -0.356066 0.180000
v -2.600000 -2.800000 0.180000
v -1.500000 -1.000000 0.180000
v -2.600000 2.800000 0.180000
v -1.500000 1.000000 0.180000
v -2.600000 -2.800000 -0.180000
v -1.500000 -1.000000 -0.180000
v -2.600000 2.800000 -0.180000
v -1.500000 1.000000 -0.180000
v 2.600000 -2.800000 0.180000
v 1.500000 -1.000000 0.180000
v 2.600000 2.800000 0.180000
v 1.500000 1.000000 0.180000
v 2.600000 -2.800000 -0.180000
v 1.500000 -1.000000 -0.180000
v 1.500000 1.000000 -0.180000
v 2.600000 2.800000 -0.180000
vn -1.0000 -0.0000 -0.0000
vn -0.0000 -0.0000 -1.0000
vn 1.0000 -0.0000 -0.0000
vn -0.0000 -0.0000 1.0000
vn -0.0000 -1.0000 -0.0000
vn -0.0000 1.0000 -0.0000
vn -0.7071 -0.7071 -0.0000
vn 0.7071 0.7071 -0.0000
vn 0.7071 -0.7071 -0.0000
vn -0.7071 0.7071 -0.0000
vt 0.375000 0.000000
vt 0.625000 0.000000
vt 0.625000 0.250000
vt 0.375000 0.250000
vt 0.446967 0.321967
vt 0.625000 0.500000
vt 0.553033 0.428033
vt 0.606066 0.375000
vt 0.500000 0.268934
vt 0.500000 0.481066
vt 0.375000 0.500000
vt 0.393934 0.375000
vt 0.625000 0.750000
vt 0.375000 0.750000
vt 0.625000 1.000000
vt 0.553033 0.928033
vt 0.606066 0.875000
vt 0.500000 0.768934
vt 0.446967 0.821967
vt 0.500000 0.981066
vt 0.375000 1.000000
vt 0.393934 0.875000
vt 0.125000 0.500000
vt 0.125000 0.750000
vt 0.875000 0.500000
vt 0.875000 0.750000
vt 0.500000 0.250000
vt 0.500000 0.500000
vt 0.250000 0.750000
vt 0.750000 0.750000
vt 0.544643 0.447115
vt 0.455357 0.447115
vt 0.544643 0.302885
vt 0.455357 0.302885
vt 0.455357 0.947115
vt 0.544643 0.947115
vt 0.544643 0.802885
vt 0.455357 0.802885
s 0
f 1/1/1 3/2/1 7/3/1 5/4/1
f 18/5/2 5/4/2 7/3/2 15/6/2 17/7/2 6/8/2 13/9/2
f 8/10/2 17/7/2 15/6/2 14/11/2 5/4/2 18/5/2 16/12/2
f 14/11/3 15/6/3 11/13/3 9/14/3
f 9/14/4 11/13/4 3/15/4 19/16/4 2/17/4 4/18/4 20/19/4
f 10/20/4 19/16/4 3/15/4 1/21/4 9/14/4 20/19/4 12/22/4
f 5/23/5 14/11/5 9/14/5 1/24/5
f 15/6/6 7/25/6 3/26/6 11/13/6
f 2/1/7 6/4/7 17/27/7 8/3/7 4/2/7
f 13/11/8 10/14/8 12/13/8 16/6/8 18/28/8
f 13/11/9 6/23/9 2/24/9 19/29/9 10/14/9
f 20/30/10 4/26/10 8/25/10 16/6/10 12/13/10
f 21/1/1 23/2/1 27/3/1 25/4/1
f 38/5/2 25/4/2 27/3/2 35/6/2 37/7/2 26/8/2 33/9/2
f 28/10/2 37/7/2 35/6/2 34/11/2 25/4/2 38/5/2 36/12/2
f 34/11/3 35/6/3 31/13/3 29/14/3
f 29/14/4 31/13/4 23/15/4 39/16/4 22/17/4 24/18/4 40/19/4
f 30/20/4 39/16/4 23/15/4 21/21/4 29/14/4 40/19/4 32/22/4
f 25/23/5 34/11/5 29/14/5 21/24/5
f 35/6/6 27/25/6 23/26/6 31/13/6
f 22/1/7 26/4/7 37/27/7 28/3/7 24/2/7
f 33/11/8 30/14/8 32/13/8 36/6/8 38/28/8
f 33/11/9 26/23/9 22/24/9 39/29/9 30/14/9
f 40/30/10 24/26/10 28/25/10 36/6/10 32/13/10
f 41/1/1 43/2/1 47/3/1 45/4/1
f 58/5/2 45/4/2 47/3/2 55/6/2 57/7/2 46/8/2 53/9/2
f 48/10/2 57/7/2 55/6/2 54/11/2 45/4/2 58/5/2 56/12/2
f 54/11/3 55/6/3 51/13/3 49/14/3
f 49/14/4 51/13/4 43/15/4 59/16/4 42/17/4 44/18/4 60/19/4
f 50/20/4 59/16/4 43/15/4 41/21/4 49/14/4 60/19/4 52/22/4
f 45/23/5 54/11/5 49/14/5 41/24/5
f 55/6/6 47/25/6 43/26/6 51/13/6
f 42/1/7 46/4/7 57/27/7 48/3/7 44/2/7
f 53/11/8 50/14/8 52/13/8 56/6/8 58/28/8
f 53/11/9 46/23/9 42/24/9 59/29/9 50/14/9
f 60/30/10 44/26/10 48/25/10 56/6/10 52/13/10
f 61/1/1 63/2/1 67/3/1 65/4/1
f 78/5/2 65/4/2 67/3/2 75/6/2 77/7/2 66/8/2 73/9/2
f 68/10/2 77/7/2 75/6/2 74/11/2 65/4/2 78/5/2 76/12/2
f 74/11/3 75/6/3 71/13/3 69/14/3
f 69/14/4 71/13/4 63/15/4 79/16/4 62/17/4 64/18/4 80/19/4
f 70/20/4 79/16/4 63/15/4 61/21/4 69/14/4 80/19/4 72/22/4
f 65/23/5 74/11/5 69/14/5 61/24/5
f 75/6/6 67/25/6 63/26/6 71/13/6
f 62/1/7 66/4/7 77/27/7 68/3/7 64/2/7
f 73/11/8 70/14/8 72/13/8 76/6/8 78/28/8
f 73/11/9 66/23/9 62/24/9 79/29/9 70/14/9
f 80/30/10 64/26/10 68/25/10 76/6/10 72/13/10
f 81/1/1 83/2/1 87/3/1 85/4/1
f 98/5/2 85/4/2 87/3/2 95/6/2 97/7/2 86/8/2 93/9/2
f 88/10/2 97/7/2 95/6/2 94/11/2 85/4/2 98/5/2 96/12/2
f 94/11/3 95/6/3 91/13/3 89/14/3
f 89/14/4 91/13/4 83/15/4 99/16/4 82/17/4 84/18/4 100/19/4
f 90/20/4 99/16/4 83/15/4 81/21/4 89/14/4 100/19/4 92/22/4
f 85/23/5 94/11/5 89/14/5 81/24/5
f 95/6/6 87/25/6 83/26/6 91/13/6
f 82/1/7 86/4/7 97/27/7 88/3/7 84/2/7
f 93/11/8 90/14/8 92/13/8 96/6/8 98/28/8
f 93/11/9 86/23/9 82/24/9 99/29/9 90/14/9
f 100/30/10 84/26/10 88/25/10 96/6/10 92/13/10
f 101/1/1 103/2/1 107/3/1 105/4/1
f 118/5/2 105/4/2 107/3/2 115/6/2 117/7/2 106/8/2 113/9/2
f 108/10/2 117/7/2 115/6/2 114/11/2 105/4/2 118/5/2 116/12/2
f 114/11/3 115/6/3 111/13/3 109/14/3
f 109/14/4 111/13/4 103/15/4 119/16/4 102/17/4 104/18/4 120/19/4
f 110/20/4 119/16/4 103/15/4 101/21/4 109/14/4 120/19/4 112/22/4
f 105/23/5 114/11/5 109/14/5 101/24/5
f 115/6/6 107/25/6 103/26/6 111/13/6
f 102/1/7 106/4/7 117/27/7 108/3/7 104/2/7
f 113/11/8 110/14/8 112/13/8 116/6/8 118/28/8
f 113/11/9 106/23/9 102/24/9 119/29/9 110/14/9
f 120/30/10 104/26/10 108/25/10 116/6/10 112/13/10
f 121/1/1 123/2/1 127/3/1 125/4/1
f 138/5/2 125/4/2 127/3/2 135/6/2 137/7/2 126/8/2 133/9/2
f 128/10/2 137/7/2 135/6/2 134/11/2 125/4/2 138/5/2 136/12/2
f 134/11/3 135/6/3 131/13/3 129/14/3
f 129/14/4 131/13/4 123/15/4 139/16/4 122/17/4 124/18/4 140/19/4
f 130/20/4 139/16/4 123/15/4 121/21/4 129/14/4 140/19/4 132/22/4
f 125/23/5 134/11/5 129/14/5 121/24/5
f 135/6/6 127/25/6 123/26/6 131/13/6
f 122/1/7 126/4/7 137/27/7 128/3/7 124/2/7
f 133/11/8 130/14/8 132/13/8 136/6/8 138/28/8
f 133/11/9 126/23/9 122/24/9 139/29/9 130/14/9
f 140/30/10 124/26/10 128/25/10 136/6/10 132/13/10
f 141/1/1 143/2/1 147/3/1 145/4/1
f 158/5/2 145/4/2 147/3/2 155/6/2 157/7/2 146/8/2 153/9/2
f 148/10/2 157/7/2 155/6/2 154/11/2 145/4/2 158/5/2 156/12/2
f 154/11/3 155/6/3 151/13/3 149/14/3
f 149/14/4 151/13/4 143/15/4 159/16/4 142/17/4 144/18/4 160/19/4
f 150/20/4 159/16/4 143/15/4 141/21/4 149/14/4 160/19/4 152/22/4
f 145/23/5 154/11/5 149/14/5 141/24/5
f 155/6/6 147/25/6 143/26/6 151/13/6
f 142/1/7 146/4/7 157/27/7 148/3/7 144/2/7
f 153/11/8 150/14/8 152/13/8 156/6/8 158/28/8
f 153/11/9 146/23/9 142/24/9 159/29/9 150/14/9
f 160/30/10 144/26/10 148/25/10 156/6/10 152/13/10
f 161/1/1 163/2/1 167/3/1 165/4/1
f 178/5/2 165/4/2 167/3/2 175/6/2 177/7/2 166/8/2 173/9/2
f 168/10/2 177/7/2 175/6/2 174/11/2 165/4/2 178/5/2 176/12/2
f 174/11/3 175/6/3 171/13/3 169/14/3
f 169/14/4 171/13/4 163/15/4 179/16/4 162/17/4 164/18/4 180/19/4
f 170/20/4 179/16/4 163/15/4 161/21/4 169/14/4 180/19/4 172/22/4
f 165/23/5 174/11/5 169/14/5 161/24/5
f 175/6/6 167/25/6 163/26/6 171/13/6
f 162/1/7 166/4/7 177/27/7 168/3/7 164/2/7
f 173/11/8 170/14/8 172/13/8 176/6/8 178/28/8
f 173/11/9 166/23/9 162/24/9 179/29/9 170/14/9
f 180/30/10 164/26/10 168/25/10 176/6/10 172/13/10
f 181/1/1 183/2/1 187/3/1 185/4/1
f 198/5/2 185/4/2 187/3/2 195/6/2 197/7/2 186/8/2 193/9/2
f 188/10/2 197/7/2 195/6/2 194/11/2 185/4/2 198/5/2 196/12/2
f 194/11/3 195/6/3 191/13/3 189/14/3
f 189/14/4 191/13/4 183/15/4 199/16/4 182/17/4 184/18/4 200/19/4
f 190/20/4 199/16/4 183/15/4 181/21/4 189/14/4 200/19/4 192/22/4
f 185/23/5 194/11/5 189/14/5 181/24/5
f 195/6/6 187/25/6 183/26/6 191/13/6
f 182/1/7 186/4/7 197/27/7 188/3/7 184/2/7
f 193/11/8 190/14/8 192/13/8 196/6/8 198/28/8
f 193/11/9 186/23/9 182/24/9 199/29/9 190/14/9
f 200/30/10 184/26/10 188/25/10 196/6/10 192/13/10
f 201/1/1 203/2/1 207/3/1 205/4/1
f 218/5/2 205/4/2 207/3/2 215/6/2 217/7/2 206/8/2 213/9/2
f 208/10/2 217/7/2 215/6/2 214/11/2 205/4/2 218/5/2 216/12/2
f 214/11/3 215/6/3 211/13/3 209/14/3
f 209/14/4 211/13/4 203/15/4 219/16/4 202/17/4 204/18/4 220/19/4
f 210/20/4 219/16/4 203/15/4 201/21/4 209/14/4 220/19/4 212/22/4
f 205/23/5 214/11/5 209/14/5 201/24/5
f 215/6/6 207/25/6 203/26/6 211/13/6
f 202/1/7 206/4/7 217/27/7 208/3/7 204/2/7
f 213/11/8 210/14/8 212/13/8 216/6/8 218/28/8
f 213/11/9 206/23/9 202/24/9 219/29/9 210/14/9
f 220/30/10 204/26/10 208/25/10 216/6/10 212/13/10
f 221/1/1 223/2/1 227/3/1 225/4/1
f 238/5/2 225/4/2 227/3/2 235/6/2 237/7/2 226/8/2 233/9/2
f 228/10/2 237/7/2 235/6/2 234/11/2 225/4/2 238/5/2 236/12/2
f 234/11/3 235/6/3 231/13/3 229/14/3
f 229/14/4 231/13/4 223/15/4 239/16/4 222/17/4 224/18/4 240/19/4
f 230/20/4 239/16/4 223/15/4 221/21/4 229/14/4 240/19/4 232/22/4
f 225/23/5 234/11/5 229/14/5 221/24/5
f 235/6/6 227/25/6 223/26/6 231/13/6
f 222/1/7 226/4/7 237/27/7 228/3/7 224/2/7
f 233/11/8 230/14/8 232/13/8 236/6/8 238/28/8
f 233/11/9 226/23/9 222/24/9 239/29/9 230/14/9
f 240/30/10 224/26/10 228/25/10 236/6/10 232/13/10
f 241/1/1 243/2/1 247/3/1 245/4/1
f 258/5/2 245/4/2 247/3/2 255/6/2 257/7/2 246/8/2 253/9/2
f 248/10/2 257/7/2 255/6/2 254/11/2 245/4/2 258/5/2 256/12/2
f 254/11/3 255/6/3 251/13/3 249/14/3
f 249/14/4 251/13/4 243/15/4 259/16/4 242/17/4 244/18/4 260/19/4
f 250/20/4 259/16/4 243/15/4 241/21/4 249/14/4 260/19/4 252/22/4
f 245/23/5 254/11/5 249/14/5 241/24/5
f 255/6/6 247/25/6 243/26/6 251/13/6
f 242/1/7 246/4/7 257/27/7 248/3/7 244/2/7
f 253/11/8 250/14/8 252/13/8 256/6/8 258/28/8
f 253/11/9 246/23/9 242/24/9 259/29/9 250/14/9
f 260/30/10 244/26/10 248/25/10 256/6/10 252/13/10
f 261/1/1 263/2/1 267/3/1 265/4/1
f 278/5/2 265/4/2 267/3/2 275/6/2 277/7/2 266/8/2 273/9/2
f 268/10/2 277/7/2 275/6/2 274/11/2 265/4/2 278/5/2 276/12/2
f 274/11/3 275/6/3 271/13/3 269/14/3
f 269/14/4 271/13/4 263/15/4 279/16/4 262/17/4 264/18/4 280/19/4
f 270/20/4 279/16/4 263/15/4 261/21/4 269/14/4 280/19/4 272/22/4
f 265/23/5 274/11/5 269/14/5 261/24/5
f 275/6/6 267/25/6 263/26/6 271/13/6
f 262/1/7 266/4/7 277/27/7 268/3/7 264/2/7
f 273/11/8 270/14/8 272/13/8 276/6/8 278/28/8
f 273/11/9 266/23/9 262/24/9 279/29/9 270/14/9
f 280/30/10 264/26/10 268/25/10 276/6/10 272/13/10
f 281/1/1 283/2/1 287/3/1 285/4/1
f 298/5/2 285/4/2 287/3/2 295/6/2 297/7/2 286/8/2 293/9/2
f 288/10/2 297/7/2 295/6/2 294/11/2 285/4/2 298/5/2 296/12/2
f 294/11/3 295/6/3 291/13/3 289/14/3
f 289/14/4 291/13/4 283/15/4 299/16/4 282/17/4 284/18/4 300/19/4
f 290/20/4 299/16/4 283/15/4 281/21/4 289/14/4 300/19/4 292/22/4
f 285/23/5 294/11/5 289/14/5 281/24/5
f 295/6/6 287/25/6 283/26/6 291/13/6
f 282/1/7 286/4/7 297/27/7 288/3/7 284/2/7
f 293/11/8 290/14/8 292/13/8 296/6/8 298/28/8
f 293/11/9 286/23/9 282/24/9 299/29/9 290/14/9
f 300/30/10 284/26/10 288/25/10 296/6/10 292/13/10
f 301/1/1 303/2/1 307/3/1 305/4/1
f 318/5/2 305/4/2 307/3/2 315/6/2 317/7/2 306/8/2 313/9/2
f 308/10/2 317/7/2 315/6/2 314/11/2 305/4/2 318/5/2 316/12/2
f 314/11/3 315/6/3 311/13/3 309/14/3
f 309/14/4 311/13/4 303/15/4 319/16/4 302/17/4 304/18/4 320/19/4
f 310/20/4 319/16/4 303/15/4 301/21/4 309/14/4 320/19/4 312/22/4
f 305/23/5 314/11/5 309/14/5 301/24/5
f 315/6/6 307/25/6 303/26/6 311/13/6
f 302/1/7 306/4/7 317/27/7 308/3/7 304/2/7
f 313/11/8 310/14/8 312/13/8 316/6/8 318/28/8
f 313/11/9 306/23/9 302/24/9 319/29/9 310/14/9
f 320/30/10 304/26/10 308/25/10 316/6/10 312/13/10
f 321/1/1 323/2/1 327/3/1 325/4/1
f 338/5/2 325/4/2 327/3/2 335/6/2 337/7/2 326/8/2 333/9/2
f 328/10/2 337/7/2 335/6/2 334/11/2 325/4/2 338/5/2 336/12/2
f 334/11/3 335/6/3 331/13/3 329/14/3
f 329/14/4 331/13/4 323/15/4 339/16/4 322/17/4 324/18/4 340/19/4
f 330/20/4 339/16/4 323/15/4 321/21/4 329/14/4 340/19/4 332/22/4
f 325/23/5 334/11/5 329/14/5 321/24/5
f 335/6/6 327/25/6 323/26/6 331/13/6
f 322/1/7 326/4/7 337/27/7 328/3/7 324/2/7
f 333/11/8 330/14/8 332/13/8 336/6/8 338/28/8
f 333/11/9 326/23/9 322/24/9 339/29/9 330/14/9
f 340/30/10 324/26/10 328/25/10 336/6/10 332/13/10
f 341/1/1 343/2/1 347/3/1 345/4/1
f 358/5/2 345/4/2 347/3/2 355/6/2 357/7/2 346/8/2 353/9/2
f 348/10/2 357/7/2 355/6/2 354/11/2 345/4/2 358/5/2 356/12/2
f 354/11/3 355/6/3 351/13/3 349/14/3
f 349/14/4 351/13/4 343/15/4 359/16/4 342/17/4 344/18/4 360/19/4
f 350/20/4 359/16/4 343/15/4 341/21/4 349/14/4 360/19/4 352/22/4
f 345/23/5 354/11/5 349/14/5 341/24/5
f 355/6/6 347/25/6 343/26/6 351/13/6
f 342/1/7 346/4/7 357/27/7 348/3/7 344/2/7
f 353/11/8 350/14/8 352/13/8 356/6/8 358/28/8
f 353/11/9 346/23/9 342/24/9 359/29/9 350/14/9
f 360/30/10 344/26/10 348/25/10 356/6/10 352/13/10
f 361/1/1 363/2/1 367/3/1 365/4/1
f 378/5/2 365/4/2 367/3/2 375/6/2 377/7/2 366/8/2 373/9/2
f 368/10/2 377/7/2 375/6/2 374/11/2 365/4/2 378/5/2 376/12/2
f 374/11/3 375/6/3 371/13/3 369/14/3
f 369/14/4 371/13/4 363/15/4 379/16/4 362/17/4 364/18/4 380/19/4
f 370/20/4 379/16/4 363/15/4 361/21/4 369/14/4 380/19/4 372/22/4
f 365/23/5 374/11/5 369/14/5 361/24/5
f 375/6/6 367/25/6 363/26/6 371/13/6
f 362/1/7 366/4/7 377/27/7 368/3/7 364/2/7
f 373/11/8 370/14/8 372/13/8 376/6/8 378/28/8
f 373/11/9 366/23/9 362/24/9 379/29/9 370/14/9
f 380/30/10 364/26/10 368/25/10 376/6/10 372/13/10
f 381/1/1 383/2/1 387/3/1 385/4/1
f 398/5/2 385/4/2 387/3/2 395/6/2 397/7/2 386/8/2 393/9/2
f 388/10/2 397/7/2 395/6/2 394/11/2 385/4/2 398/5/2 396/12/2
f 394/11/3 395/6/3 391/13/3 389/14/3
f 389/14/4 391/13/4 383/15/4 399/16/4 382/17/4 384/18/4 400/19/4
f 390/20/4 399/16/4 383/15/4 381/21/4 389/14/4 400/19/4 392/22/4
f 385/23/5 394/11/5 389/14/5 381/24/5
f 395/6/6 387/25/6 383/26/6 391/13/6
f 382/1/7 386/4/7 397/27/7 388/3/7 384/2/7
f 393/11/8 390/14/8 392/13/8 396/6/8 398/28/8
f 393/11/9 386/23/9 382/24/9 399/29/9 390/14/9
f 400/30/10 384/26/10 388/25/10 396/6/10 392/13/10
f 401/1/1 403/2/1 407/3/1 405/4/1
f 418/5/2 405/4/2 407/3/2 415/6/2 417/7/2 406/8/2 413/9/2
f 408/10/2 417/7/2 415/6/2 414/11/2 405/4/2 418/5/2 416/12/2
f 414/11/3 415/6/3 411/13/3 409/14/3
f 409/14/4 411/13/4 403/15/4 419/16/4 402/17/4 404/18/4 420/19/4
f 410/20/4 419/16/4 403/15/4 401/21/4 409/14/4 420/19/4 412/22/4
f 405/23/5 414/11/5 409/14/5 401/24/5
f 415/6/6 407/25/6 403/26/6 411/13/6
f 402/1/7 406/4/7 417/27/7 408/3/7 404/2/7
f 413/11/8 410/14/8 412/13/8 416/6/8 418/28/8
f 413/11/9 406/23/9 402/24/9 419/29/9 410/14/9
f 420/30/10 404/26/10 408/25/10 416/6/10 412/13/10
f 421/1/1 423/2/1 427/3/1 425/4/1
f 438/5/2 425/4/2 427/3/2 435/6/2 437/7/2 426/8/2 433/9/2
f 428/10/2 437/7/2 435/6/2 434/11/2 425/4/2 438/5/2 436/12/2
f 434/11/3 435/6/3 431/13/3 429/14/3
f 429/14/4 431/13/4 423/15/4 439/16/4 422/17/4 424/18/4 440/19/4
f 430/20/4 439/16/4 423/15/4 421/21/4 429/14/4 440/19/4 432/22/4
f 425/23/5 434/11/5 429/14/5 421/24/5
f 435/6/6 427/25/6 423/26/6 431/13/6
f 422/1/7 426/4/7 437/27/7 428/3/7 424/2/7
f 433/11/8 430/14/8 432/13/8 436/6/8 438/28/8
f 433/11/9 426/23/9 422/24/9 439/29/9 430/14/9
f 440/30/10 424/26/10 428/25/10 436/6/10 432/13/10
f 441/1/1 443/2/1 447/3/1 445/4/1
f 458/5/2 445/4/2 447/3/2 455/6/2 457/7/2 446/8/2 453/9/2
f 448/10/2 457/7/2 455/6/2 454/11/2 445/4/2 458/5/2 456/12/2
f 454/11/3 455/6/3 451/13/3 449/14/3
f 449/14/4 451/13/4 443/15/4 459/16/4 442/17/4 444/18/4 460/19/4
f 450/20/4 459/16/4 443/15/4 441/21/4 449/14/4 460/19/4 452/22/4
f 445/23/5 454/11/5 449/14/5 441/24/5
f 455/6/6 447/25/6 443/26/6 451/13/6
f 442/1/7 446/4/7 457/27/7 448/3/7 444/2/7
f 453/11/8 450/14/8 452/13/8 456/6/8 458/28/8
f 453/11/9 446/23/9 442/24/9 459/29/9 450/14/9
f 460/30/10 444/26/10 448/25/10 456/6/10 452/13/10
f 461/1/1 463/2/1 467/3/1 465/4/1
f 478/5/2 465/4/2 467/3/2 475/6/2 477/7/2 466/8/2 473/9/2
f 468/10/2 477/7/2 475/6/2 474/11/2 465/4/2 478/5/2 476/12/2
f 474/11/3 475/6/3 471/13/3 469/14/3
f 469/14/4 471/13/4 463/15/4 479/16/4 462/17/4 464/18/4 480/19/4
f 470/20/4 479/16/4 463/15/4 461/21/4 469/14/4 480/19/4 472/22/4
f 465/23/5 474/11/5 469/14/5 461/24/5
f 475/6/6 467/25/6 463/26/6 471/13/6
f 462/1/7 466/4/7 477/27/7 468/3/7 464/2/7
f 473/11/8 470/14/8 472/13/8 476/6/8 478/28/8
f 473/11/9 466/23/9 462/24/9 479/29/9 470/14/9
f 480/30/10 464/26/10 468/25/10 476/6/10 472/13/10
f 481/1/1 483/2/1 487/3/1 485/4/1
f 495/31/2 496/6/2 493/11/2 494/32/2
f 493/11/2 485/4/2 487/3/2 496/6/2 495/31/2 488/33/2 486/34/2 494/32/2
f 493/11/3 496/6/3 491/13/3 489/14/3
f 482/35/4 484/36/4 483/15/4 481/21/4
f 482/35/4 481/21/4 489/14/4 491/13/4 483/15/4 484/36/4 492/37/4 490/38/4
f 485/23/5 493/11/5 489/14/5 481/24/5
f 496/6/6 487/25/6 483/26/6 491/13/6
f 484/2/3 482/1/3 486/4/3 488/3/3
f 492/13/1 495/6/1 494/11/1 490/14/1
f 486/23/6 482/24/6 490/14/6 494/11/6
f 484/26/5 488/25/5 495/6/5 492/13/5
